<?xml version="1.0" ?>
<!DOCTYPE svg  PUBLIC '-//W3C//DTD SVG 1.1//EN'  'http://www.w3.org/Graphics/SVG/1.1/DTD/svg11.dtd'>
<!-- Uploaded to: SVG Repo, www.svgrepo.com, Generator: SVG Repo Mixer Tools -->
<svg fill="#000000" width="800px" height="800px" viewBox="0 0 32 32" style="fill-rule:evenodd;clip-rule:evenodd;stroke-linejoin:round;stroke-miterlimit:2;" version="1.1" xml:space="preserve" xmlns="http://www.w3.org/2000/svg" xmlns:serif="http://www.serif.com/" xmlns:xlink="http://www.w3.org/1999/xlink">
<g transform="matrix(1,0,0,1,0,-336)">
<g transform="matrix(1.6,0,0,1.33333,-0.8,-115)">
<path d="M18.625,357.75C18.625,357.336 18.345,357 18,357C15.416,357 5.584,357 3,357C2.655,357 2.375,357.336 2.375,357.75C2.375,358.208 2.375,358.792 2.375,359.25C2.375,359.664 2.655,360 3,360C5.584,360 15.416,360 18,360C18.345,360 18.625,359.664 18.625,359.25C18.625,358.792 18.625,358.208 18.625,357.75Z" style="fill:rgb(144,224,239);"/>
</g>
<g transform="matrix(1,0,0,1,0,2)">
<path d="M26.245,346.717C26.105,345.732 25.261,345 24.265,345C20.481,345 11.519,345 7.735,345C6.739,345 5.895,345.732 5.755,346.717C5.221,350.456 4,359 4,359L28,359C28,359 26.779,350.456 26.245,346.717Z" style="fill:rgb(144,224,239);"/>
</g>
<g transform="matrix(0.888889,0,0,1,2.77778,2)">
<path d="M25,338C25,337.735 24.881,337.48 24.67,337.293C24.46,337.105 24.173,337 23.875,337C22.626,337 20.624,337 19.375,337C19.077,337 18.79,337.105 18.58,337.293C18.369,337.48 18.25,337.735 18.25,338C18.25,338.611 18.25,339.389 18.25,340C18.25,340.265 18.369,340.52 18.58,340.707C18.79,340.895 19.077,341 19.375,341C20.624,341 22.626,341 23.875,341C24.173,341 24.46,340.895 24.67,340.707C24.881,340.52 25,340.265 25,340C25,339.389 25,338.611 25,338Z" style="fill:rgb(144,224,239);"/>
</g>
<path d="M16,344C16,343.735 15.895,343.48 15.707,343.293C15.52,343.105 15.265,343 15,343C13.89,343 12.11,343 11,343C10.735,343 10.48,343.105 10.293,343.293C10.105,343.48 10,343.735 10,344C10,346.146 10,351 10,351L16,351L16,344Z" style="fill:rgb(144,224,239);"/>
<path d="M17,346L21,346L21,344L20,344C19.47,344 18.961,343.789 18.586,343.414C18.211,343.039 18,342.53 18,342L18,340C18,339.47 18.211,338.961 18.586,338.586C18.961,338.211 19.47,338 20,338C21.11,338 22.89,338 24,338C24.53,338 25.039,338.211 25.414,338.586C25.789,338.961 26,339.47 26,340L26,342C26,342.53 25.789,343.039 25.414,343.414C25.039,343.789 24.53,344 24,344L23,344L23,346L24.265,346C25.758,346 27.024,347.098 27.235,348.576L28.898,360.212C29.551,360.541 30,361.218 30,362L30,364C30,365.105 29.105,366 28,366C23.866,366 8.134,366 4,366C2.895,366 2,365.105 2,364L2,362C2,361.218 2.449,360.541 3.102,360.212L4.765,348.576C4.976,347.098 6.242,346 7.735,346L9,346L9,344C9,343.47 9.211,342.961 9.586,342.586C9.961,342.211 10.47,342 11,342C12.11,342 13.89,342 15,342C15.53,342 16.039,342.211 16.414,342.586C16.789,342.961 17,343.47 17,344L17,346ZM28,362L4,362L4,364L28,364C28,364 28,362 28,362ZM9,352C8.448,352 8,351.552 8,351C8,350.448 8.448,350 9,350L9,348L7.735,348C7.237,348 6.815,348.366 6.745,348.859L5.153,360L26.847,360L25.255,348.859C25.185,348.366 24.763,348 24.265,348L17,348L17,350C17.552,350 18,350.448 18,351C18,351.55 17.555,351.997 17.006,352L9,352ZM13,358C13,357.448 13.448,357 14,357C14.552,357 15,357.448 15,358C15,358.552 14.552,359 14,359C13.448,359 13,358.552 13,358ZM9,358C9,357.448 9.448,357 10,357C10.552,357 11,357.448 11,358C11,358.552 10.552,359 10,359C9.448,359 9,358.552 9,358ZM17,358C17,357.448 17.448,357 18,357C18.552,357 19,357.448 19,358C19,358.552 18.552,359 18,359C17.448,359 17,358.552 17,358ZM21,358C21,357.448 21.448,357 22,357C22.552,357 23,357.448 23,358C23,358.552 22.552,359 22,359C21.448,359 21,358.552 21,358ZM13,355C13,354.448 13.448,354 14,354C14.552,354 15,354.448 15,355C15,355.552 14.552,356 14,356C13.448,356 13,355.552 13,355ZM9,355C9,354.448 9.448,354 10,354C10.552,354 11,354.448 11,355C11,355.552 10.552,356 10,356C9.448,356 9,355.552 9,355ZM17,355C17,354.448 17.448,354 18,354C18.552,354 19,354.448 19,355C19,355.552 18.552,356 18,356C17.448,356 17,355.552 17,355ZM21,355C21,354.448 21.448,354 22,354C22.552,354 23,354.448 23,355C23,355.552 22.552,356 22,356C21.448,356 21,355.552 21,355ZM15,350L11,350L11,344L15,344L15,350ZM24,342L20,342C20,342 20,340 20,340L24,340C24,340 24,342 24,342Z" style="fill:rgb(25,144,167);"/>
<path d="M15,344L15,344Z" style="fill:rgb(25,144,167);"/>
</g>
</svg>