<!DOCTYPE svg PUBLIC "-//W3C//DTD SVG 1.1//EN" "http://www.w3.org/Graphics/SVG/1.1/DTD/svg11.dtd">
<!-- Uploaded to: SVG Repo, www.svgrepo.com, Transformed by: SVG Repo Mixer Tools -->
<svg width="800px" height="800px" viewBox="0 0 24 24" xmlns="http://www.w3.org/2000/svg" fill="#9c9c9c" stroke="#9c9c9c">
<g id="SVGRepo_bgCarrier" stroke-width="0"/>
<g id="SVGRepo_tracerCarrier" stroke-linecap="round" stroke-linejoin="round"/>
<g id="SVGRepo_iconCarrier"> <rect x="0" fill="none" width="24" height="24"/> <g> <path d="M15 7.5c0-.828.672-1.5 1.5-1.5s1.5.672 1.5 1.5S17.328 9 16.5 9 15 8.328 15 7.5zM4 20h14c0 1.105-.895 2-2 2H4c-1.1 0-2-.9-2-2V8c0-1.105.895-2 2-2v14zM22 4v12c0 1.105-.895 2-2 2H8c-1.105 0-2-.895-2-2V4c0-1.105.895-2 2-2h12c1.105 0 2 .895 2 2zM8 4v6.333L11 7l4.855 5.395.656-.73c.796-.886 2.183-.886 2.977 0l.513.57V4H8z"/> </g> </g>
</svg>