<?xml version="1.0" encoding="utf-8"?><!-- Uploaded to: SVG Repo, www.svgrepo.com, Generator: SVG Repo Mixer Tools -->
<svg fill="#000000" width="800px" height="800px" viewBox="0 0 24 24" id="up-square-3" data-name="Flat Line" xmlns="http://www.w3.org/2000/svg" class="icon flat-line"><path id="secondary" d="M20,3H4A1,1,0,0,0,3,4V20a1,1,0,0,0,1,1H20a1,1,0,0,0,1-1V4A1,1,0,0,0,20,3ZM8,15l4-7,4,7Z" style="fill: rgb(44, 169, 188); stroke-width: 2;"></path><path id="primary" d="M12,8l4,7H8ZM4,21H20a1,1,0,0,0,1-1V4a1,1,0,0,0-1-1H4A1,1,0,0,0,3,4V20A1,1,0,0,0,4,21Z" style="fill: none; stroke: rgb(0, 0, 0); stroke-linecap: round; stroke-linejoin: round; stroke-width: 2;"></path></svg>